<svg xmlns="http://www.w3.org/2000/svg" viewBox="0 0 79.2666 90.5132"><defs><style>.a{fill:#fff;}.b{fill:#d2d2d2;}</style></defs><title>fleur-de-lis-white-gray</title><polygon class="a" points="8.438 42.981 9.477 46.192 12.852 46.192 10.123 48.172 11.17 51.379 8.438 49.404 5.713 51.379 6.752 48.172 4.021 46.192 7.393 46.192 8.438 42.981"/><polygon class="a" points="70.699 42.981 71.742 46.191 75.111 46.191 72.386 48.172 73.427 51.379 70.699 49.404 67.968 51.379 69.013 48.172 66.284 46.191 69.658 46.191 70.699 42.981"/><path class="a" d="M15.7627,48.4316a12.21389,12.21389,0,0,0-5.6021,7.6612l-.0278.1455-.1211-.0845a18.68863,18.68863,0,0,1-3.2012-2.7139A15.29578,15.29578,0,0,1,2.4219,42.7124a12.31775,12.31775,0,0,1,1.0659-5.104L1.875,35.4512A14.3828,14.3828,0,0,0,0,42.6821V42.73A17.75982,17.75982,0,0,0,5.3008,55.3682a22.20341,22.20341,0,0,0,5.3169,4.0356l2.104,1.0117a7.6013,7.6013,0,0,1,.2837-5.2817,10.216,10.216,0,0,1,3.8491-4.5191,6.88863,6.88863,0,0,1,1.2749-.6162c-.5991-.3877-2-1.3345-2.3667-1.5669"/><path class="a" d="M73.9805,55.3662a17.807,17.807,0,0,0,5.2861-12.6333v-.0508a14.37974,14.37974,0,0,0-1.8662-7.23L75.79,37.6084a12.37033,12.37033,0,0,1,1.0586,5.1074,15.26963,15.26963,0,0,1-4.3867,10.7241,19.36722,19.36722,0,0,1-3.1934,2.7139l-.124.0845-.0361-.1455a12.80355,12.80355,0,0,0-.6035-1.8912,12.40563,12.40563,0,0,0-4.9961-5.77c-.3653.2324-1.76559,1.1836-2.3643,1.5659a6.82666,6.82666,0,0,1,1.2744.6192,10.22407,10.22407,0,0,1,3.8438,4.5141,7.02538,7.02538,0,0,1,.6064,2.9478,8.80083,8.80083,0,0,1-.3174,2.3423l2.10551-1.0152a22.277,22.277,0,0,0,5.32329-4.0395"/><path class="a" d="M53.8603,32.2178a17.95275,17.95275,0,0,1,2.045-.9449,20.3633,20.3633,0,0,1,7.3086-1.3803h.0351a15.15126,15.15126,0,0,1,8.2735,2.7099h3.7324a14.917,14.917,0,0,0-1.59769-1.4365A17.53414,17.53414,0,0,0,63.2178,27.4731a22.53907,22.53907,0,0,0-9.6309,2.1685l-.1191.0566-.0235-.1342c-.8857-4.8375-2.99609-9.1919-5.4453-13.6338C45.28421,11.019,42.1518,5.9722,39.6338,0c-2.5078,5.9722-5.648,11.019-8.3565,15.9302-2.4502,4.4419-4.5678,8.7963-5.4482,13.6338l-.023.1342-.1157-.0566a22.54226,22.54226,0,0,0-9.6279-2.1685A17.52308,17.52308,0,0,0,5.6157,31.166a15.76794,15.76794,0,0,0-1.5942,1.4365h3.729a15.14919,15.14919,0,0,1,8.272-2.7099h.04a20.3578,20.3578,0,0,1,7.30571,1.3803,17.047,17.047,0,0,1,2.039.9449c.231.124.40919.2319.51519.2944.0629.0381.101.0674.123.081l.0249.0142.0098.0015v.0063L27.748,33.749l.209-2.0093c.55421-5.0849,2.7051-9.6894,5.4361-14.6396,1.9179-3.4727,4.1059-7.0962,6.1538-11.1538l.0869-.1773.0932.1773c2.045,4.0576,4.2408,7.6811,6.1529,11.1538,2.7324,4.9502,4.8808,9.5547,5.4306,14.6396l.2198,2.0093,1.6552-1.1265.0108-.0073.0117-.0078.0137-.0142a1.05078,1.05078,0,0,0,.1269-.081c.1114-.0625.2901-.1704.5117-.2944"/><path class="a" d="M15.1504,66.7817c0,.2696.0073.502.0073.6807a13.84316,13.84316,0,0,0,3.6348,9.3496,11.581,11.581,0,0,0,8.40771,3.9321h.00389a9.83884,9.83884,0,0,0,4.352-1.0205l.0972-.0425.0357.0938a32.91289,32.91289,0,0,0,7.9448,10.7383A32.94483,32.94483,0,0,0,47.585,79.7749l.039-.0938.0947.0425a9.84479,9.84479,0,0,0,4.3467,1.0205h.0117a11.56177,11.56177,0,0,0,8.4043-3.9321,13.85672,13.85672,0,0,0,3.63381-9.3496c0-.1787.00489-.4111.00489-.6807a13.29363,13.29363,0,0,0-1.6894-6.5674V60.27a8.01675,8.01675,0,0,1-3.4629,6.2739,4.70294,4.70294,0,0,1-2.4141.6553H56.54a7.057,7.057,0,0,1-3.1142-.8393,10.00967,10.00967,0,0,1-1.2842-.816l-2.0518,1.4619a15.498,15.498,0,0,0,2.1123,1.4415,9.3468,9.3468,0,0,0,4.3516,1.1772h.0127a7.1896,7.1896,0,0,0,3.623-.9883,8.39239,8.39239,0,0,0,1.3282-.9756l.1748-.1523-.0039.2329a11.47028,11.47028,0,0,1-2.98829,7.4355,9.17283,9.17283,0,0,1-6.61041,3.1499h-.0127a7.71433,7.71433,0,0,1-4.3418-1.3857l-1.2734-.9912-.5488,1.626v.0019c-.0254.0513-.0547.127-.0938.2198-.084.1928-.209.4838-.3847.8422-.334.7207-.8428,1.7305-1.5225,2.8785a30.543,30.543,0,0,1-4.1831,5.5961.03536.03536,0,0,1-.021.0186l-.0742.0757-.0669-.0757c-.0059,0-.0108-.0054-.022-.0186a30.2206,30.2206,0,0,1-4.1841-5.5961c-.6797-1.148-1.188-2.1578-1.5268-2.8785-.1699-.3584-.2959-.6494-.378-.8422-.039-.0928-.0727-.1685-.09179-.2198v-.0019H33.3613l-.5483-1.626-1.2837.9941a7.69178,7.69178,0,0,1-4.32909,1.3828H27.1811a9.1461,9.1461,0,0,1-6.604-3.1499,11.50406,11.50406,0,0,1-2.9926-7.4355l-.0049-.2329.1709.1523a8.66511,8.66511,0,0,0,1.331.9756,7.195,7.195,0,0,0,3.626.9883h.01371a9.39959,9.39959,0,0,0,4.35789-1.1772,16.2157,16.2157,0,0,0,2.1079-1.4415l-2.0586-1.4619a8.91464,8.91464,0,0,1-1.28119.8067,6.97323,6.97323,0,0,1-3.11091.8486h-.01509a4.71857,4.71857,0,0,1-2.417-.6553A7.98968,7.98968,0,0,1,16.8516,60.27v-.0557a13.32278,13.32278,0,0,0-1.7012,6.5674"/><polygon class="a" points="37.964 31.498 41.352 31.498 39.634 7.518 37.964 31.498"/><path class="a" d="M31.6601,52.8413A22.6495,22.6495,0,0,0,32.81,57.8418V52.8413Z"/><path class="a" d="M34.07421,52.8413v7.7075A12.92176,12.92176,0,0,0,35.292,62.2739V52.8413Z"/><path class="a" d="M36.5591,52.8413V63.5835a13.38929,13.38929,0,0,0,1.2099.9433V52.8413Z"/><path class="a" d="M39.0439,52.8413V65.2715c.1841.0957.3848.185.5811.2768.2158-.0937.4209-.1982.625-.3032V52.8413Z"/><path class="a" d="M41.5239,52.8413V64.4922a12.20823,12.20823,0,0,0,1.208-.9409v-10.71Z"/><path class="a" d="M44.0039,52.8413v9.3848a13.1191,13.1191,0,0,0,1.208-1.7315V52.8413Z"/><path class="a" d="M47.5967,52.8413H46.4766v4.915a21.93082,21.93082,0,0,0,1.1201-4.915"/><path class="b" d="M33.0483,69.2099a11.25577,11.25577,0,0,0,1.1138.2027l1.959-4.6602a13.85123,13.85123,0,0,1-3.39889-4.1831c-.42091.9536-2.90481,6.5952-2.93311,6.752a.5833.5833,0,0,0,.3002.5708c.2398.1343.7427.436.7427.436s-.6396,1.2183-1.2446,1.4854a6.30743,6.30743,0,0,1-2.731.6406c-1.0044-.0703-1.6513-.0874-1.813.7392a2.03079,2.03079,0,0,0,1.0767,2.0791s-.54-1.5097.438-1.5097h6.1558c.374,0,.77631.4702.40431,1.3188a1.52633,1.52633,0,0,0,.94769-1.8564c-.1728-.8413-1.11469-.708-1.5469-.7368a7.35394,7.35394,0,0,1-1.2129-.2744l.835-1.3462s.5728.2378.9072.3422"/><path class="b" d="M44.1084,40.2934s.3076,1.587.9473,1.587c.6367,0,3.6162-2.71,4.7119-3.8038,1.0908-1.0913,4.5439-4.2436,8.6474-4.2436,4.1045,0,18.7823.0391,18.7823.0391s-.5088,1.5444-1.74809,1.7797c-1.249.2369-8.79,1.0176-8.79,1.0176H75.3115a3.88334,3.88334,0,0,1-2.1592,1.8115c-1.2744.2305-6.8935.8101-6.8935.8101H72.917a3.29775,3.29775,0,0,1-2.252,1.9429c-1.6152.311-6.8994.747-6.8994.747h6.3623a4.2461,4.2461,0,0,1-2.3242,1.8506c-1.4131.3028-6.9971.8721-6.9971.8721h5.9541a3.81184,3.81184,0,0,1-2.3906,1.7178c-1.5488.2695-6.2598.9067-6.2598.9067h5.0782a5.5166,5.5166,0,0,1-2.99029,1.958c-1.75191.2969-5.18361.8057-5.18361.8057h3.6377a10.32124,10.32124,0,0,1-2.82709,1.7192c-1.24611.3667-4.51171.9419-4.51171.9419h2.6621L49.124,55.644v.4702l5.5557,5.42a11.15753,11.15753,0,0,1-2.3262,2.7246,13.69063,13.69063,0,0,1-2.4219,1.7138L47.083,59.4614c.1338-.3174.2734-.6265.3916-.9492a28.333,28.333,0,0,0,1.377-12.2012l-.0528-.4209L39.7729,43.813l-.1289-.0332-.143.0332-9.0191,2.0771-.0595.4209a25.0898,25.0898,0,0,0-.1651,3.085,25.97211,25.97211,0,0,0,1.5366,9.147c.1241.33.2652.664.417.9926l-2.8266,6.437a14.17236,14.17236,0,0,1-2.4253-1.7128,11.22328,11.22328,0,0,1-2.3189-2.7256l5.5523-5.42V55.644l-4.8433-2.8911h2.6533s-3.2651-.5752-4.5083-.9419a10.25967,10.25967,0,0,1-2.8276-1.7192h3.63871s-3.43611-.5088-5.18561-.8057a5.552,5.552,0,0,1-2.998-1.958h5.0849s-4.7129-.6372-6.2651-.9067a3.81845,3.81845,0,0,1-2.3848-1.7178h5.95561s-5.58981-.5693-6.99761-.8721a4.2043,4.2043,0,0,1-2.3232-1.8506h6.3569s-5.2758-.436-6.8925-.747A3.313,3.313,0,0,1,6.3945,39.291h6.6631s-5.6182-.5796-6.896-.8101a3.90964,3.90964,0,0,1-2.1558-1.8115h8.6485s-7.5347-.7807-8.7827-1.0176C2.625,35.4165,2.126,33.8735,2.126,33.8735s14.6704-.0405,18.7763-.0405c4.105,0,7.5537,3.1523,8.64991,4.2436,1.09569,1.0938,4.07279,3.8038,4.71289,3.8038.6358,0,1.51711-1.1626,1.51711-1.1626a25.5354,25.5354,0,0,0,1.06889-2.6329,7.958,7.958,0,0,1-1.2452-.5859,2.29779,2.29779,0,0,1-.7348-.81h1.8828c.4722,0,1.9199.3593,1.7939,1.0883-.1318.7388-1.2197,4.1822-1.2197,4.1822a13.12117,13.12117,0,0,0,2.2837.2329c1.1372,0,3.168-.2329,3.168-.2329s-.937-6.0049-1.0401-6.6856c-.1069-.6875-1.1367-.9126-2.0288-.9126a6.83619,6.83619,0,0,0-1.771.2476c-.17669.0542-.2319.2348.126.4326a1.03174,1.03174,0,0,0,.7559.082.98841.98841,0,0,1-.35059.6831,3.3678,3.3678,0,0,1-1.645.3023,13.439,13.439,0,0,0-1.82911.0259.81139.81139,0,0,0-.5762.4023c-.082.1519.2212.7832.2212.7832s-.52789.2305-.88189-.6509a1.66771,1.66771,0,0,1,.27689-1.9512c.8857-.6147,2.78911-.2314,2.78911-.2314a3.11339,3.11339,0,0,1,1.61759-1.5947,6.73711,6.73711,0,0,1,3.4732-.0757,15.09709,15.09709,0,0,0,2.1318.0757l-.916,1.5439s.7451,4.6519.9756,5.8574"/><path class="b" d="M42.3579,65.3374a12.70383,12.70383,0,0,1-2.4961,1.373l-.2368.1055-.2359-.1055a12.62587,12.62587,0,0,1-2.4443-1.3393L35.644,68.7353a12.30786,12.30786,0,0,0,3.9541.502l.0049.0034h.1148v-.0034a12.26673,12.26673,0,0,0,3.9511-.502Z"/><path class="b" d="M52.456,70.4521a6.2372,6.2372,0,0,1-2.7226-.6386c-.6094-.2671-1.24419-1.4854-1.24419-1.4854s.502-.3017.73829-.436a.61187.61187,0,0,0,.30471-.5708c-.03511-.1587-2.63471-6.0806-2.96481-6.8228a13.98639,13.98639,0,0,1-3.3858,4.2129l1.9737,4.7012s.7734-.105,1.1103-.2027c.336-.1035.9102-.3422.9102-.3422l.8408,1.3462a7.86855,7.86855,0,0,1-1.2109.2744c-.43749.0288-1.3819-.1045-1.5508.7368a1.52472,1.52472,0,0,0,.9414,1.8564c-.37109-.8486.0371-1.3188.4053-1.3188h6.1582c.98141,0,.44041,1.5097.44041,1.5097a2.04032,2.04032,0,0,0,1.08009-2.083c-.16209-.8227-.8125-.8081-1.8243-.7373"/><path class="b" d="M47.6943,46.8779l-8.0605-1.8555-8.06059,1.8555c-.00291.1128-.01711.2344-.02491.3799-.04.5103-.07709,1.2495-.07709,2.1353-.00591.6557.01509,1.3969.07709,2.1894H47.7187c.0557-.812.087-1.5679.087-2.2285,0-1.1226-.0704-1.9937-.1114-2.4761M33.8271,51.1108l-.62789-.4653-.63231.4653.2461-.7461-.6309-.4619h.7739l.24321-.7388.23979.7388h.78221l-.62791.4619Zm-.2338-2.9243.2338.75-.62789-.4604-.63231.4604.2461-.75-.6309-.4521h.7739l.24321-.7408.23979.7408h.78221Zm.7338-.9814h.7798l.23731-.7461.24269.7461h.77731l-.62931.4614.2402.7373-.63089-.457-.62941.457.2403-.7373Zm2.0508,3.9057-.625-.4653-.63669.4653.24459-.7461-.6338-.4619h.7823l.2436-.7388.2412.7388h.7749l-.6259.4619Zm.0904-4.4365h.7856l.23931-.7402.24169.7402h.7749l-.6309.4605.2461.7348-.63179-.457-.63431.457.2402-.7348Zm2.4667,4.4365-.6352-.4653-.6309.4653.2422-.7461-.6362-.4619h.77931l.24559-.7388.2383.7388h.7807l-.6298.4619Zm.0708-3.77.2442-.7402-.63379-.4575H39.397l.2368-.7408.2461.7408h.7802l-.6333.4575.2383.7402-.6313-.4629Zm2.5752,3.77-.6342-.4653-.628.4653.2442-.7461-.6353-.4619h.7832l.2359-.7388.2451.7388h.7798l-.6309.4619Zm.1788-3.6982-.6319.457.2412-.7348-.6313-.4605h.7803l.2417-.7402.2373.7402h.7827l-.628.4605.2378.7348Zm2.3691,3.6982-.627-.4653-.6352.4653.2383-.7461-.6241-.4619h.7779l.2431-.7388.2408.7388h.7749l-.627.4619Zm.3994-2.707-.6284-.457-.624.457.2348-.7373-.6279-.4614h.7803l.2368-.7461.2397.7461h.7784l-.6241.4614Zm2.1543,2.707-.6406-.4653-.625.4653.24021-.7461-.63081-.4619h.7832l.2324-.7388.248.7388h.7774l-.6358.4619Zm-.251-2.9243.251.75-.6406-.4604-.625.4604.24021-.75-.63081-.4521h.7832l.2324-.7408.248.7408h.7774Z"/></svg>