<svg xmlns="http://www.w3.org/2000/svg" width="42.109" height="48.456"><path fill="#fff" d="M21.272 0h.04c.026.063.058.125.077.191.188.599.321 1.22.573 1.79.349.792.762 1.559 1.19 2.311.396.696.849 1.361 1.278 2.038.599.942 1.2 1.883 1.8 2.824.629.987 1.215 1.999 1.663 3.082.297.715.579 1.438.813 2.177.236.749.347 1.53.406 2.315.011.146.097.168.253.088.581-.294 1.152-.613 1.752-.868a6.154 6.154 0 0 1 2.169-.494c.704-.03 1.411-.033 2.119.096a8.147 8.147 0 0 1 2.866 1.125c.726.451 1.319 1.057 1.864 1.722.673.82 1.149 1.737 1.481 2.73.156.466.256.955.332 1.441.084.535.14 1.077.154 1.617.014.493-.001.994-.081 1.479a10.489 10.489 0 0 1-.436 1.75c-.174.498-.453.959-.685 1.438-.38.787-.914 1.462-1.509 2.094-.696.741-1.496 1.358-2.349 1.904-.574.364-1.166.703-1.751 1.05-.069.041-.154.06-.261.1.043-.268.087-.498.117-.729.066-.519.163-1.036.178-1.557.014-.456-.063-.916-.107-1.373a3.492 3.492 0 0 0-.514-1.514c-.401-.657-.922-1.209-1.68-1.452-.395-.126-.809-.235-1.219-.257-.379-.019-.771.063-1.144.153a4.566 4.566 0 0 0-.948.359c-.654.329-1.178.817-1.637 1.388-.425.527-.768 1.1-.98 1.737a30.01 30.01 0 0 0-.538 1.902c-.095.363-.058.431.178.549.925.458 1.465 1.58 1.031 2.643-.24.588-.702.959-1.285 1.177-.214.08-.283.155-.164.348.168.273.333.563.563.78.748.708 1.673.821 2.545.339.746-.413 1.129-1.098 1.144-1.967.005-.314.001-.628.001-.951.048.006.085-.001.11.013.252.151.508.298.753.459.71.468 1.278 1.08 1.771 1.765.481.668.804 1.403.963 2.222a3.566 3.566 0 0 1-.114 1.836c-.244.725-.63 1.364-1.246 1.854a4.865 4.865 0 0 1-1.605.856 4.93 4.93 0 0 1-1.77.227c-.572-.038-1.133-.099-1.666-.3-.413-.154-.831-.327-1.199-.566-.412-.269-.778-.611-1.148-.939-.139-.123-.204-.123-.289.039a6.913 6.913 0 0 1-.341.582c-.429.656-.839 1.326-1.302 1.957-.366.497-.797.948-1.205 1.414-.466.53-.944 1.048-1.522 1.463h-.039c-.172-.151-.35-.297-.514-.457a20.26 20.26 0 0 1-2.057-2.381c-.406-.545-.767-1.125-1.131-1.701-.215-.341-.397-.703-.592-1.057-.055-.104-.116-.124-.208-.047-.139.116-.275.236-.423.341-.382.271-.746.586-1.163.79-1.031.504-2.123.688-3.272.499a5.348 5.348 0 0 1-1.954-.716c-.53-.325-.983-.735-1.311-1.264a3.938 3.938 0 0 1-.621-2.299 4.48 4.48 0 0 1 .368-1.588c.418-.975 1.075-1.78 1.901-2.438.366-.293.766-.542 1.155-.805.09-.06.199-.089.325-.144 0 .153.012.266-.002.375-.062.519-.074 1.03.121 1.531.309.786.993 1.317 1.8 1.388.62.055 1.19-.102 1.661-.525.261-.233.506-.483.644-.82.06-.15.044-.25-.11-.314-.058-.025-.12-.045-.177-.072-1.012-.475-1.464-1.395-1.18-2.452.163-.609.568-1.046 1.127-1.33.178-.092.247-.219.215-.409-.121-.695-.259-1.384-.505-2.051-.268-.726-.603-1.414-1.108-1.994-.648-.745-1.39-1.37-2.388-1.612-.702-.17-1.395-.242-2.111-.046a3.11 3.11 0 0 0-1.661 1.115c-.628.802-.873 1.751-.929 2.751-.02.347-.023.696.002 1.043.028.411.094.819.145 1.229.02.157.042.313.068.508-.129-.063-.207-.094-.277-.137-.247-.15-.495-.3-.736-.458-.445-.295-.903-.573-1.322-.9a19.591 19.591 0 0 1-1.457-1.259 8.506 8.506 0 0 1-.959-1.074c-.346-.468-.645-.971-.956-1.466-.149-.237-.304-.479-.407-.737a8.935 8.935 0 0 1-.393-1.22c-.112-.473-.17-.96-.251-1.44-.029-.169-.054-.338-.079-.506v-.592c.012-.026.035-.052.037-.079.028-.337.026-.678.087-1.008.115-.636.251-1.27.408-1.896.074-.296.224-.572.333-.86a5.935 5.935 0 0 1 .9-1.582c.395-.497.849-.95 1.303-1.395.244-.24.529-.444.819-.63.573-.37 1.198-.63 1.848-.843a7.536 7.536 0 0 1 2.22-.368c.381-.008.765.032 1.145.075.358.042.718.086 1.064.181a8.711 8.711 0 0 1 2.714 1.25c.134.093.21.063.238-.1.072-.431.091-.877.211-1.293.243-.848.508-1.69.825-2.514.224-.582.521-1.14.831-1.683.467-.819.964-1.621 1.464-2.42.307-.489.645-.96.969-1.438.493-.73.997-1.452 1.471-2.193.483-.751.957-1.509 1.395-2.285A9.31 9.31 0 0 0 21.272 0"/></svg>