<svg xmlns="http://www.w3.org/2000/svg" id="Layer_1" width="407.103" height="73.978"><style>.st0{fill:#fff}</style><path d="M96.369 44.919c.157.016.188.063.188.156 0 .11-.047.143-.22.174-.22.016-.471.125-.627.25-.298.236-.361.535-.376 1.523l-.063 6.218.016 1.853c.016 1.068.047 1.383.204 1.57.079.094.314.204.581.252.408.063.486.109.486.25 0 .095-.11.174-.267.174l-.283-.016s-.737-.031-1.082-.031h-.424c-.157 0-.91.031-1.208.031h-.361c-.094 0-.157-.063-.157-.142 0-.095.063-.142.157-.173l.313-.063c.235-.047.502-.283.612-.55.063-.173.11-.393.125-.659 0 0 .047-.848.063-2.041l.016-2.355c0-.126-.031-.157-.157-.157h-6.337c-.125 0-.596.016-.69.016-.172 0-.204.016-.204.157v2.559l.047 1.445c.032 1.067.063 1.178.314 1.381.141.11.423.221.753.268.188.031.282.094.282.173 0 .126-.157.142-.157.142s-1.318-.031-2.071-.031c-.706 0-1.066.031-1.066.031s-.33.016-.486.016c-.063 0-.125-.079-.125-.157a.2.2 0 0 1 .125-.173l.251-.094c.235-.063.564-.33.69-.534s.188-.597.188-1.146c0 0 .016-1.853.016-1.978v-4.742c0-1.523 0-2.041-.047-2.418-.047-.424-.22-.754-.549-.848a4.681 4.681 0 0 0-.486-.063c-.094-.016-.141-.047-.141-.126 0-.125.032-.156.22-.156h.408c.361 0 .722.016 1.083.016.455 0 .925-.016 1.584-.016h.267c.141 0 .235.063.235.156 0 .11-.11.174-.361.205a1.096 1.096 0 0 0-.722.393c-.204.282-.251.58-.251 1.805l.016 2.826c0 .11.016.189.11.189h7.09c.142 0 .204-.079.204-.299 0 0-.031-1.602-.031-1.932v-1.507c0-.612-.157-1.114-.424-1.319-.078-.078-.219-.125-.455-.156l-.408-.063a.15.15 0 0 1-.11-.142c0-.109.11-.172.251-.172 0 0 1.725.047 1.819.047.643 0 .957-.031 1.161-.031.236-.001.33-.001.471.014zm4.038.707c-.235.016-.298.047-.298.188l-.016.455v4.067c0 .158.016.174.141.174h2.369c.878 0 1.083-.11 1.177-.66.047-.251.094-.33.204-.33.079 0 .125.063.125.174l-.047.533v.863l.094 1.115v.235c0 .079-.032.126-.11.126-.11 0-.157-.078-.204-.439-.094-.598-.376-.848-.988-.863 0 0-.596-.016-1.521-.032-.267 0-1.066.048-1.066.048h-.11c-.032.016-.047.063-.047.109l.063 3.784c.016 1.256.141 1.476.847 1.507.769.047.831.047.91.047.878 0 1.914-.094 2.18-.203.267-.11.627-.393.8-.629.11-.156.204-.346.298-.659.031-.126.063-.157.141-.157.094 0 .141.031.141.142 0 .142-.094.565-.188.927l-.188.675c-.094.439-.157.503-.455.503h-.283c-.267 0-1.129-.031-2.557-.031-1.929 0-3.325.031-3.733.047l-.298.016c-.079 0-.125-.047-.125-.11 0-.095.047-.142.361-.204.188-.047.486-.173.627-.283.172-.125.235-.313.251-.784l.016-.738V50.01s-.031-3.171-.047-3.36c-.031-.564-.063-.941-.219-1.162-.094-.125-.251-.203-.486-.219l-.376-.031c-.094-.016-.157-.063-.157-.158 0-.094.094-.156.251-.156 0 0 3.247.063 3.325.063 3.639-.078 3.67-.078 3.702-.078.125 0 .204.125.204.267v.126c-.016.109-.016.22-.016.346 0 .329.031.69.063.973.016.094.031.173.031.236 0 .172-.063.25-.157.25-.079 0-.125-.047-.173-.172l-.094-.299c-.251-.816-.644-1.036-1.789-1.036h-1.96l-.613.026zm11.533-.314l.125-.361c.047-.125.11-.173.235-.173.11 0 .172.063.22.188l.204.565a241.2 241.2 0 0 0 2.4 6.28c.8 2.057 1.287 3.25 1.412 3.58l.219.597s.251.581.424.722c.11.095.251.174.518.221.282.047.361.078.361.219 0 .095-.063.158-.157.158h-3.231c-.173 0-.235-.048-.235-.143 0-.109.094-.172.33-.188.408-.047.674-.361.674-.801 0-.126-.047-.299-.157-.676l-1.255-3.375c-.047-.142-.094-.173-.188-.173h-.172c-.659 0-1.318-.032-1.977-.032l-1.584.016c-.078 0-.125.017-.157.032s-.063.063-.094.142l-1.317 3.328c-.11.283-.188.612-.188.801 0 .173.094.393.204.518.11.11.141.127.518.205.267.063.345.109.345.22 0 .063-.079.142-.157.142l-.345-.016s-.753-.031-1.02-.031c-.125 0-1.443.063-1.443.063-.141 0-.219-.047-.219-.157 0-.142.078-.204.329-.298.455-.174.675-.44.957-1.115l3.624-8.558.797-1.9zm.172 1.805c-.016-.047-.047-.063-.078-.063s-.079.031-.11.079l-1.521 3.722c-.047.125-.079.25-.079.329 0 .095.063.142.22.157l2.808-.016c.204 0 .282-.063.282-.205 0-.031 0-.063-.016-.094l-1.412-3.689-.094-.22zm6.799 10.207c-.079 0-.125-.047-.125-.126s.047-.142.172-.173l.376-.109c.361-.11.581-.361.659-.754.094-.408.078-.565.125-2.465l.157-6.878c.016-.142.016-.282.016-.424 0-.188-.016-.345-.016-.471-.031-.33-.22-.597-.439-.644l-.345-.063c-.11-.017-.345-.063-.361-.079-.047-.016-.079-.079-.079-.142 0-.125.11-.172.267-.172 0 0 .298.016.408.016.345 0 1.694.063 1.882.063 1.851-.016 2.071-.016 2.086-.016 1.663 0 2.871 1.256 2.871 2.951 0 1.115-.392 2.025-1.114 2.591l-.816.644.33.455 3.921 4.476.549.55c.172.172.439.282.863.377l.345.078c.142.031.173.063.173.141 0 .11-.031.127-.22.143l-2.228.063c-.235 0-.596-.283-.925-.723l-.486-.644c-.455-.612-1.129-1.444-1.992-2.481-.627-.753-1.066-1.287-1.317-1.633l-.188-.251c-.141-.188-.235-.251-.486-.251l-.549.016c-.423.016-.627.016-.816.047-.188.031-.219.094-.219.33l-.047 3.156c0 .502.047 1.052.094 1.287.063.314.392.644.706.707l.486.094c.204.047.251.063.251.173 0 .095-.047.142-.157.142 0 0-.423-.016-.533-.016 0 0-1.396-.048-1.49-.048l-1.789.063zm2.509-6.705c0 .236.141.299.674.299 2.102 0 3.263-.942 3.263-2.639 0-1.664-1.192-2.747-3.043-2.747-.753 0-.863.126-.863.942l-.031 4.145zm9.057-5.512c.047-.203.063-.219.188-.219 0 0 4.533.078 4.737.078h4.047l.832-.047c.22 0 .267.063.267.377 0 .125-.016.235-.031.33l-.283 1.192c-.016.095-.094.157-.172.157s-.125-.047-.125-.141c0-.11.031-.221.031-.361 0-.346-.031-.424-.219-.519-.283-.157-.832-.22-1.851-.22-.534 0-1.067.016-1.412.047l-.345.031c-.125.016-.188.063-.204.157 0 0-.016.313-.016.424v9.499c0 .598.282.88 1.035 1.021l.33.063c.094.031.267.031.267.188 0 .111-.063.174-.204.174h-.313l-3.545-.016c-.079 0-.251.016-.33.016s-.125-.079-.125-.174c0-.031.016-.094.079-.125s.282-.063.282-.063l.549-.11c.283-.063.534-.267.612-.503.094-.266.125-.926.125-2.229l.031-7.883c0-.518-.063-.549-.91-.549-.313 0-.674 0-1.082.016-.847.031-1.239.094-1.553.22-.313.126-.612.471-.847.989-.047.109-.078.125-.141.125-.094 0-.141-.031-.141-.094 0-.047.016-.078.031-.125l.142-.472.141-.706.123-.548zm23.27 12.42c-1.584 0-2.996-.502-3.812-1.035-1.679-1.115-2.667-3.234-2.667-5.731 0-3.438 2.557-5.967 6.039-5.967 1.443 0 2.761.33 3.733.942 1.694 1.052 2.745 3.156 2.745 5.448 0 .503-.063 1.021-.157 1.586-.235 1.271-.643 2.136-1.412 2.968-1.129 1.193-2.573 1.742-4.33 1.789h-.139zm4.706-5.888c0-1.978-.69-3.689-1.977-4.914-.957-.911-1.898-1.272-3.326-1.272-1.223 0-2.008.252-2.839.896-1.239.958-1.82 2.214-1.82 3.972 0 3.596 2.416 6.658 5.271 6.658 2.918-.001 4.691-2.026 4.691-5.34zm9.81-6.72c.141 0 .188.109.204.377l.047 1.318c.016.204.031.361.031.502 0 .174-.063.299-.157.299-.11 0-.172-.109-.188-.314-.063-.69-.376-1.209-.847-1.381a2.59 2.59 0 0 0-.659-.126 77.61 77.61 0 0 0-2.07-.031l-.769.016c-.345.016-.376.048-.376.267l-.063 4.507c0 .126.047.204.125.204l2.729-.031c.267 0 .471-.047.565-.126.047-.047.094-.157.157-.345.047-.127.079-.252.094-.361.016-.174.063-.252.157-.252.11 0 .172.11.172.314-.063.879-.063.973-.063 1.052 0 .408.047 1.005.094 1.319.032.203.063.393.063.439 0 .125-.063.204-.172.204-.094 0-.157-.126-.235-.503-.204-.879-.376-1.036-1.271-1.052 0 0-.895-.016-1.098-.016l-1.02-.031c-.094 0-.157 0-.22.031-.079.031-.094.142-.094.503V55c0 .957.047 1.334.204 1.602.125.22.455.361.973.393.251.016.36.078.36.188 0 .095-.047.142-.219.142h-3.687c-.047 0-.094-.047-.094-.11 0-.095.047-.142.204-.157.392-.047.659-.141.816-.33.094-.109.219-.313.235-.518.016-.142.031-.393.031-.754l.016-1.115v-1.35l.063-5.37c0-.55-.016-1.099-.047-1.444-.047-.612-.313-.926-.832-.941-.313 0-.439-.063-.439-.174 0-.094.125-.156.314-.156l6.667.016h.299zm12.352.393l.125-.361c.047-.125.11-.173.235-.173.11 0 .172.063.22.188l.204.565a241.2 241.2 0 0 0 2.4 6.28c.8 2.057 1.287 3.25 1.412 3.58l.219.597s.251.581.424.722c.11.095.251.174.518.221.282.047.361.078.361.219 0 .095-.063.158-.157.158h-3.231c-.173 0-.235-.048-.235-.143 0-.109.094-.172.33-.188.408-.047.674-.361.674-.801 0-.126-.047-.299-.157-.676l-1.255-3.375c-.047-.142-.094-.173-.188-.173h-.172c-.659 0-1.318-.032-1.977-.032l-1.584.016c-.078 0-.125.017-.157.032s-.063.063-.094.142l-1.317 3.328c-.11.283-.188.612-.188.801 0 .173.094.393.204.518.11.11.141.127.518.205.267.063.345.109.345.22 0 .063-.079.142-.157.142l-.345-.016s-.753-.031-1.02-.031c-.125 0-1.443.063-1.443.063-.141 0-.219-.047-.219-.157 0-.142.078-.204.329-.298.455-.174.675-.44.957-1.115l3.624-8.558.797-1.9zm.172 1.805c-.016-.047-.047-.063-.078-.063s-.079.031-.11.079l-1.521 3.722c-.047.125-.079.25-.079.329 0 .095.063.142.22.157l2.808-.016c.204 0 .282-.063.282-.205 0-.031 0-.063-.016-.094l-1.412-3.689-.094-.22zm17.778 1.461c-.016-.094-.047-.157-.094-.157-.032 0-.079.032-.094.079l-.251.518c-.533 1.1-1.067 2.371-1.663 3.831-.863 2.136-1.443 3.533-1.757 4.161l-.173.346c-.031.063-.094.125-.141.125-.094 0-.141-.063-.172-.141l-.235-.503c-.439-.927-1.051-2.323-1.82-4.224-.706-1.742-1.255-3.03-1.694-3.878l-.22-.425c-.047-.063-.094-.109-.11-.109-.047 0-.078.031-.094.063l-.047.298-.549 6.752-.016.659c0 .313.016.439.11.597.141.22.298.282 1.098.408.157.016.22.063.22.172 0 .11-.094.174-.267.174l-.627-.016c-.361-.016-.863-.016-1.176-.016-.33 0-.596 0-.8.016l-.267.016c-.141 0-.172-.031-.172-.126s.078-.142.282-.188c.471-.109.69-.33.769-.801l.094-.612c.031-.173.313-3.015.313-3.015l.439-4.945c.11-1.162.141-1.712.141-2.12v-.142c0-.471.063-.659.235-.659.125 0 .204.11.313.392l.91 2.277c.282.691 3.435 7.756 3.435 7.756.016.063.063.11.094.11.047 0 .078-.047.109-.11l.439-1.035c.345-.816.925-2.136 1.726-3.941.941-2.104 1.631-3.753 2.086-4.93l.11-.283c.063-.157.125-.22.22-.22.11 0 .188.11.204.298l.125 2.136s.094 1.507.109 1.681l.361 6.279c.063 1.225.33 1.681 1.036 1.791.267.031.393.109.393.234 0 .127-.095.174-.33.174h-.063s-1.365-.016-1.475-.016c-.125 0-1.098.031-1.098.031-.094 0-.533.016-.549.016-.11 0-.173-.063-.173-.157s.063-.142.22-.204c.581-.204.91-.612.91-1.115 0-.156-.016-.424-.031-.801l-.063-1.225-.28-5.276zm6.737-2.952c-.235.016-.299.047-.299.188l-.016.455v4.067c0 .158.016.174.142.174h2.369c.878 0 1.082-.11 1.176-.66.048-.251.095-.33.204-.33.078 0 .126.063.126.174l-.048.533v.863l.095 1.115v.235c0 .079-.031.126-.11.126-.109 0-.156-.078-.203-.439-.095-.598-.377-.848-.988-.863 0 0-.597-.016-1.521-.032-.268 0-1.066.048-1.066.048h-.11c-.031.016-.048.063-.048.109l.063 3.784c.016 1.256.142 1.476.847 1.507.77.047.832.047.91.047.878 0 1.914-.094 2.181-.203.267-.11.627-.393.8-.629.109-.156.204-.346.298-.659.031-.126.063-.157.142-.157.094 0 .141.031.141.142 0 .142-.094.565-.188.927l-.188.675c-.095.439-.157.503-.455.503h-.282c-.267 0-1.13-.031-2.557-.031-1.93 0-3.326.031-3.734.047l-.297.016c-.079 0-.126-.047-.126-.11 0-.095.047-.142.36-.204.188-.047.486-.173.628-.283.173-.125.235-.313.251-.784l.016-.738V50.01s-.031-3.171-.047-3.36c-.031-.564-.063-.941-.22-1.162-.095-.125-.251-.203-.486-.219l-.376-.031c-.095-.016-.157-.063-.157-.158 0-.094.094-.156.251-.156 0 0 3.247.063 3.325.063 3.64-.078 3.671-.078 3.702-.078.125 0 .204.125.204.267v.126c-.016.109-.016.22-.016.346 0 .329.031.69.063.973.016.094.031.173.031.236 0 .172-.063.25-.157.25-.078 0-.125-.047-.172-.172l-.095-.299c-.251-.816-.643-1.036-1.788-1.036h-1.961l-.614.026zm5.996 11.698c-.078 0-.126-.047-.126-.126s.048-.142.173-.173l.377-.109c.36-.11.58-.361.658-.754.095-.408.079-.565.126-2.465l.156-6.878c.016-.142.016-.282.016-.424 0-.188-.016-.345-.016-.471-.031-.33-.22-.597-.438-.644l-.346-.063c-.109-.017-.345-.063-.36-.079-.047-.016-.079-.079-.079-.142 0-.125.11-.172.268-.172 0 0 .298.016.407.016.346 0 1.694.063 1.883.063 1.851-.016 2.07-.016 2.086-.016 1.663 0 2.87 1.256 2.87 2.951 0 1.115-.392 2.025-1.113 2.591l-.815.644.329.455 3.922 4.476.549.55c.173.172.439.282.862.377l.346.078c.141.031.172.063.172.141 0 .11-.031.127-.22.143l-2.227.063c-.235 0-.597-.283-.926-.723l-.486-.644c-.455-.612-1.129-1.444-1.992-2.481-.627-.753-1.066-1.287-1.317-1.633l-.188-.251c-.141-.188-.235-.251-.486-.251l-.549.016c-.424.016-.628.016-.815.047-.188.031-.22.094-.22.33l-.047 3.156c0 .502.047 1.052.094 1.287.063.314.393.644.706.707l.486.094c.204.047.251.063.251.173 0 .095-.047.142-.157.142 0 0-.424-.016-.533-.016 0 0-1.396-.048-1.49-.048l-1.791.063zm2.51-6.705c0 .236.141.299.675.299 2.102 0 3.263-.942 3.263-2.639 0-1.664-1.192-2.747-3.043-2.747-.754 0-.863.126-.863.942l-.032 4.145zm12.774 4.742c.016.91.063 1.162.314 1.365.141.11.407.205.753.268.188.031.282.094.282.188s-.063.157-.157.157l-.267-.016c-.392-.016-1.004-.047-1.788-.047-.564 0-.988.031-1.271.047l-.22.016c-.094 0-.157-.063-.157-.157 0-.11.063-.173.377-.251.313-.095.564-.283.69-.55.172-.361.172-.55.188-3.141l.016-6.327c0-.299-.016-.565-.047-.801-.047-.439-.251-.738-.533-.816-.125-.031-.502-.095-.502-.095-.109-.016-.141-.063-.141-.126 0-.125.063-.172.251-.172.313 0 .769.031 1.129.031h.596c.722 0 1.161 0 1.647-.031.125 0 .157.031.157.125 0 .11-.095.189-.346.236-.329.078-.58.219-.722.408a.878.878 0 0 0-.172.393c-.079.408-.126 1.586-.126 2.889v4.191l.049 2.216zm12.912 1.413c-1.224.519-2.51.801-3.545.801-3.89 0-6.399-2.466-6.399-6.28 0-1.869.533-3.329 1.71-4.586.831-.91 1.474-1.303 2.415-1.633.659-.234 1.35-.282 2.055-.282 1.035 0 1.898.11 3.311.675.282.11.502.189.658.236.22.047.267.109.267.439 0 .564.031 1.115.079 1.742v.063c0 .173-.063.235-.157.235s-.188-.078-.345-.439c-.204-.471-.926-1.256-1.412-1.57-.831-.549-1.553-.77-2.541-.77-1.177 0-2.086.283-2.902.895-1.333.975-1.913 2.293-1.913 4.35 0 3.36 2.446 6.25 5.317 6.25 1.004 0 2.148-.361 2.854-.88.471-.345 1.083-1.178 1.255-1.681.11-.329.157-.408.313-.408.11 0 .173.143.173.33 0 .094-.047.346-.109.597-.095.314-.173.675-.173.675l-.094.456c-.08.36-.251.55-.817.785zm7.771-11.462l.125-.361c.048-.125.11-.173.235-.173.11 0 .173.063.22.188l.204.565a241.2 241.2 0 0 0 2.4 6.28c.8 2.057 1.286 3.25 1.411 3.58l.22.597s.251.581.424.722c.109.095.251.174.518.221.282.047.36.078.36.219 0 .095-.063.158-.156.158h-3.231c-.173 0-.235-.048-.235-.143 0-.109.094-.172.329-.188.408-.047.675-.361.675-.801 0-.126-.047-.299-.157-.676l-1.255-3.375c-.047-.142-.094-.173-.188-.173h-.173c-.659 0-1.317-.032-1.977-.032l-1.584.016c-.079 0-.126.017-.157.032s-.063.063-.094.142l-1.318 3.328c-.109.283-.188.612-.188.801a.89.89 0 0 0 .203.518c.11.11.142.127.519.205.267.063.345.109.345.22 0 .063-.078.142-.157.142l-.345-.016s-.753-.031-1.02-.031c-.126 0-1.443.063-1.443.063-.141 0-.22-.047-.22-.157 0-.142.079-.204.33-.298.454-.174.674-.44.956-1.115l3.624-8.558.8-1.9zm.173 1.805c-.016-.047-.048-.063-.079-.063s-.078.031-.109.079l-1.521 3.722c-.047.125-.078.25-.078.329 0 .095.063.142.219.157l2.809-.016c.203 0 .282-.063.282-.205 0-.031 0-.063-.016-.094l-1.412-3.689-.095-.22zm22.391 9.657c-1.223.519-2.51.801-3.545.801-3.89 0-6.399-2.466-6.399-6.28 0-1.869.533-3.329 1.71-4.586.831-.91 1.474-1.303 2.415-1.633.659-.234 1.35-.282 2.055-.282 1.036 0 1.898.11 3.311.675.282.11.502.189.658.236.22.047.267.109.267.439 0 .564.031 1.115.079 1.742v.063c0 .173-.063.235-.157.235s-.188-.078-.345-.439c-.204-.471-.926-1.256-1.412-1.57-.831-.549-1.553-.77-2.541-.77-1.177 0-2.087.283-2.902.895-1.333.975-1.913 2.293-1.913 4.35 0 3.36 2.446 6.25 5.317 6.25 1.004 0 2.148-.361 2.854-.88.471-.345 1.082-1.178 1.255-1.681.11-.329.157-.408.313-.408.11 0 .173.143.173.33 0 .094-.047.346-.109.597-.095.314-.173.675-.173.675l-.094.456c-.08.36-.251.55-.817.785zm8.917.753c-1.585 0-2.996-.502-3.813-1.035-1.678-1.115-2.666-3.234-2.666-5.731 0-3.438 2.557-5.967 6.039-5.967 1.443 0 2.761.33 3.733.942 1.693 1.052 2.745 3.156 2.745 5.448 0 .503-.063 1.021-.157 1.586-.235 1.271-.644 2.136-1.412 2.968-1.129 1.193-2.572 1.742-4.329 1.789h-.14zm4.705-5.888c0-1.978-.689-3.689-1.977-4.914-.956-.911-1.897-1.272-3.325-1.272-1.224 0-2.008.252-2.839.896-1.239.958-1.819 2.214-1.819 3.972 0 3.596 2.415 6.658 5.271 6.658 2.917-.001 4.689-2.026 4.689-5.34zm2.83-6.782s1.349.047 1.458.047h1.443l.251-.016c.126 0 .204.047.204.125 0 .094-.063.126-.204.142-.376.031-.706.22-.925.503a1.279 1.279 0 0 0-.204.424c-.063.188-.11.393-.11.58-.016.33-.016 1.193-.016 2.592l.016 3.391c0 .439.016.816.047 1.131.079.91.565 1.821 1.256 2.371.658.518 1.506.738 2.823.738 1.364 0 2.274-.314 2.933-.99.581-.596.77-1.287.77-2.795l-.017-6.625c0-.832-.188-1.1-.831-1.24l-.298-.063c-.173-.031-.188-.047-.188-.142 0-.078.031-.109.157-.109l.439.016c.658.031 1.035.047 1.098.047.157 0 .486 0 1.004-.031l.313-.016c.157 0 .235.047.235.141 0 .11-.078.174-.376.205-.455.063-.644.203-.753.644a3.147 3.147 0 0 0-.095.581 83.698 83.698 0 0 0-.109 3.313l-.047 3.392c-.031 1.884-.283 2.638-1.192 3.392a2.973 2.973 0 0 1-1.428.691c-.611.125-1.349.203-2.086.203-1.679 0-2.887-.408-3.702-1.256a3.824 3.824 0 0 1-.847-1.444 4.137 4.137 0 0 1-.204-1.209s-.016-2.544-.016-2.731l.031-4.083c0-1.036-.22-1.491-.675-1.554l-.423-.063c-.173-.031-.235-.063-.235-.157s.094-.156.204-.156l.299.011zm22.751 1.726l-.016-.377c-.016-.533-.314-.816-.863-.895l-.329-.047c-.22-.031-.329-.079-.329-.174 0-.125.109-.188.267-.188.078 0 .282.016.282.016h2.65c.126 0 .188.063.188.172 0 .095-.047.143-.157.189 0 0-.549.156-.705.235-.188.078-.268.251-.283.581l-.047 1.193c0 .156-.125 5.103-.125 5.103v4.772c0 .361-.016.425-.157.425-.141 0-.22-.079-.439-.425-.063-.109-.172-.25-.313-.455-.267-.377-.455-.611-.533-.722l-.69-.911-3.074-3.643-2.604-3.25c-.142-.173-.393-.455-.393-.455a.183.183 0 0 0-.142-.078c-.047 0-.094.031-.109.094-.047.125-.047.377-.047.738v6.641c0 .143.016.645.016.645.016.659.329 1.115.847 1.193l.424.063c.109.016.188.094.188.173 0 .11-.063.142-.235.142l-1.741-.063s-1.286.031-1.443.031c-.109 0-.173-.063-.173-.126 0-.095.079-.157.251-.204l.346-.078c.22-.048.455-.252.549-.472.078-.157.125-.345.142-.55.047-.393.063-1.24.078-2.135 0 0 .125-6.595.125-6.674 0-.455-.094-.706-.203-.832-.519-.596-.659-.754-.895-.926-.298-.221-.424-.283-.424-.377 0-.078.079-.126.157-.126h1.239c.235 0 .407.095.564.298l.69.896c.737.989 1.992 2.56 3.765 4.694a292.51 292.51 0 0 1 2.714 3.345l.689.88c.048.047.079.063.095.063.031 0 .047-.047.063-.157.016-.126.047-.393.047-.737l.093-7.505zm13.292 10.191c-1.224.519-2.51.801-3.545.801-3.89 0-6.399-2.466-6.399-6.28 0-1.869.533-3.329 1.71-4.586.831-.91 1.474-1.303 2.415-1.633.659-.234 1.35-.282 2.055-.282 1.035 0 1.898.11 3.311.675.282.11.502.189.658.236.22.047.267.109.267.439 0 .564.031 1.115.079 1.742v.063c0 .173-.063.235-.157.235s-.188-.078-.345-.439c-.204-.471-.926-1.256-1.412-1.57-.831-.549-1.553-.77-2.541-.77-1.177 0-2.086.283-2.902.895-1.333.975-1.913 2.293-1.913 4.35 0 3.36 2.446 6.25 5.317 6.25 1.004 0 2.148-.361 2.854-.88.471-.345 1.083-1.178 1.255-1.681.11-.329.157-.408.313-.408.11 0 .173.143.173.33 0 .094-.047.346-.109.597-.095.314-.173.675-.173.675l-.094.456c-.079.36-.251.55-.817.785zm4.853-1.413c.016.91.063 1.162.314 1.365.141.11.407.205.753.268.188.031.282.094.282.188s-.063.157-.157.157l-.267-.016c-.393-.016-1.004-.047-1.788-.047-.564 0-.988.031-1.271.047l-.22.016c-.094 0-.157-.063-.157-.157 0-.11.063-.173.377-.251.313-.095.564-.283.69-.55.172-.361.172-.55.188-3.141l.016-6.327c0-.299-.016-.565-.047-.801-.047-.439-.251-.738-.533-.816-.125-.031-.502-.095-.502-.095-.109-.016-.141-.063-.141-.126 0-.125.063-.172.251-.172.313 0 .769.031 1.129.031h.596c.722 0 1.161 0 1.647-.031.126 0 .157.031.157.125 0 .11-.095.189-.346.236-.329.078-.58.219-.722.408a.878.878 0 0 0-.172.393c-.079.408-.126 1.586-.126 2.889v4.191l.049 2.216zm6.073-10.426c.11 0 .157.047.157.141 0 .095-.157.174-.393.189-.188.016-.455.063-.58.156-.157.126-.267.205-.282.848 0 0-.063 1.822-.063 1.932l.017 5.794c0 1.225.047 1.821.125 2.214.094.393.267.502 1.004.502l1.114-.016c1.772-.031 2.446-.33 2.839-1.381.063-.158.125-.221.22-.221.078 0 .141.063.141.126 0 .048-.016.142-.047.282l-.439 1.586c-.047.157-.125.236-.267.236h-6.917c-.142 0-.173-.031-.173-.11 0-.126.047-.142.267-.188.204-.047.518-.141.69-.251.204-.11.235-.282.267-.675l.031-.566V48.06c0-.99-.031-1.744-.094-2.136-.063-.408-.204-.55-.597-.597-.22-.031-.36-.047-.407-.063-.126-.016-.188-.079-.188-.174 0-.094.063-.141.157-.141l1.693.031 1.725-.045zM69.839 0h1.652v73.978h-1.652zm15.175 17.488c0-1.058-.023-1.153-.188-1.482-.235-.471-.612-.66-1.412-.682-.236 0-.353-.095-.353-.26s.117-.236.588-.236c0 0 1.765.071 2.025.071.494 0 1.554-.046 2.189-.046.989 0 2.119.046 2.119.046.941.047 1.766.282 2.354.683 1.13.73 1.718 1.931 1.718 3.414 0 1.625-1.106 3.367-2.425 3.956l-.448.188c-.023.024-.047.047-.047.094 0 .046.047.095.141.142l.307.093c.4.118.636.213.729.26.683.283 1.437.847 1.908 1.412.659.802.988 1.743.988 2.896 0 1.484-.493 2.755-1.436 3.698-1.248 1.293-2.519 1.694-5.202 1.694-.259 0-.636 0-1.201-.023-.471-.024-.848-.024-1.13-.024h-.894c-.519 0-.871.024-1.107.047-.306.024-.541.024-.706.024-.26 0-.425-.094-.425-.236 0-.14.095-.211.282-.258.565-.118.684-.166.966-.378.165-.142.306-.306.354-.471.07-.14.117-.375.164-.658.071-.401.094-.753.094-1.013l.072-9.417-.024-3.534zm1.742 3.956c0 .777.047 1.2.047 1.295 0 .306.117.375.588.375l.943-.022c2.354-.071 3.767-1.531 3.767-3.862 0-1.954-1.696-3.414-3.956-3.414-.424 0-.706.046-.941.165a.634.634 0 0 0-.284.26.933.933 0 0 0-.117.471c0 .14-.024.447-.024.871l-.023 2.378v1.483zm0 6.923c0 2.967.023 3.319.377 3.603.282.258 1.365.494 2.283.494 1.107 0 1.719-.165 2.402-.66.941-.682 1.507-1.929 1.507-3.225 0-2.825-2.213-4.591-5.698-4.591-.753 0-.848.048-.848.566v.493c0 1.106-.023 2.213-.023 3.32zm20.175 5.391c-2.378 0-4.497-.754-5.722-1.554-2.519-1.673-4.002-4.851-4.002-8.594 0-5.156 3.838-8.947 9.064-8.947 2.167 0 4.144.495 5.604 1.413 2.542 1.578 4.121 4.732 4.121 8.169 0 .753-.094 1.53-.235 2.378-.354 1.907-.966 3.203-2.12 4.45-1.695 1.789-3.861 2.613-6.498 2.685h-.212zm7.063-8.829c0-2.967-1.036-5.532-2.967-7.37-1.436-1.364-2.848-1.906-4.991-1.906-1.837 0-3.014.377-4.262 1.342-1.86 1.436-2.731 3.32-2.731 5.957 0 5.391 3.626 9.982 7.91 9.982 4.381 0 7.041-3.038 7.041-8.005zm2.352-9.677c-.071-.024-.166-.094-.166-.188 0-.165.118-.236.377-.236.824 0 1.672.024 2.731.024.588 0 1.177-.024 1.506-.024h.472c.306 0 .447.071.447.213 0 .164-.094.235-.377.282-.495.093-.871.493-.871.942 0 .258.283.987.659 1.625l3.673 6.214a.131.131 0 0 0 .117.071c.047 0 .095-.047.236-.307l4.026-6.662c.306-.494.4-.754.4-1.107 0-.354-.212-.659-.518-.705l-.448-.071c-.211-.024-.259-.071-.259-.213 0-.165.118-.282.235-.282 0 0 1.884.095 2.048.095.283 0 1.414-.095 1.601-.095.4 0 .566.071.566.26 0 .118-.095.211-.236.258l-.542.118c-.47.095-.824.542-1.695 1.931l-4.874 7.794c-.07.093-.095.211-.095.423l-.046 5.58c0 1.036.565 1.531 1.766 1.671l.423.047c.26.024.401.142.401.331 0 .165-.094.236-.401.236l-.4-.024s-2.471-.047-2.707-.047c-.306 0-2.778.047-2.778.047-.142 0-.259-.094-.259-.188 0-.187.117-.187.518-.283.353-.093.8-.236 1.083-.447.424-.282.612-.942.612-2.189v-4.638c0-.331-.046-.4-.353-.919l-4.615-7.721c-.494-.8-.612-1.084-.965-1.342-.35-.262-1.221-.449-1.292-.474zm34.887 3.203c-.165 0-.235-.071-.306-.354a5.458 5.458 0 0 0-.141-.635c-.235-.8-.376-1.036-.825-1.318-.518-.307-1.224-.471-2.166-.471-1.954 0-3.273 1.271-3.273 3.178 0 1.412.965 2.684 3.225 4.238l1.625 1.106c1.954 1.318 2.661 2.565 2.661 4.472 0 3.298-2.167 5.109-6.075 5.109-.776 0-1.224-.047-2.166-.236l-.683-.14c-.166-.047-.188-.095-.236-.447l-.165-1.32a13.121 13.121 0 0 0-.141-.824c-.046-.234-.117-.658-.117-.918 0-.187.071-.258.211-.258.165 0 .236.071.282.307.166.659.377 1.129.73 1.576.612.825 1.719 1.249 3.272 1.249 2.072 0 3.579-1.484 3.579-3.509 0-.635-.165-1.318-.4-1.718-.306-.494-1.153-1.342-1.93-1.885l-1.554-1.083c-1.437-.988-2.167-1.647-2.661-2.307-.565-.707-.847-1.625-.847-2.707 0-2.944 1.93-4.851 4.967-4.851.589 0 1.271.048 2.236.188.236.024.4.047.495.047.448.048.541.213.541.871v.354c0 .4.118 1.742.118 2.002.003.189-.091.284-.256.284zm17.727 14.172c-1.837.777-3.767 1.2-5.321 1.2-5.839 0-9.606-3.695-9.606-9.417 0-2.802.801-4.991 2.567-6.874 1.248-1.366 2.212-1.955 3.626-2.449.988-.354 2.024-.424 3.083-.424 1.554 0 2.849.165 4.968 1.014.424.164.753.282.989.353.329.07.4.165.4.658 0 .849.047 1.672.118 2.614v.095c0 .259-.095.352-.236.352s-.282-.118-.518-.658c-.307-.707-1.389-1.884-2.119-2.355-1.249-.823-2.332-1.154-3.815-1.154-1.766 0-3.13.424-4.355 1.342-2.001 1.46-2.872 3.438-2.872 6.523 0 5.038 3.672 9.37 7.98 9.37 1.507 0 3.226-.542 4.286-1.319.706-.518 1.625-1.766 1.883-2.52.165-.494.235-.611.47-.611.166 0 .259.211.259.494 0 .142-.07.518-.165.896-.141.471-.259 1.011-.259 1.011l-.141.684c-.115.54-.374.822-1.222 1.175zm13.371 1.131c-2.378 0-4.497-.754-5.722-1.554-2.519-1.673-4.002-4.851-4.002-8.594 0-5.156 3.838-8.947 9.064-8.947 2.167 0 4.143.495 5.604 1.413 2.542 1.578 4.121 4.732 4.121 8.169 0 .753-.095 1.53-.236 2.378-.354 1.907-.965 3.203-2.12 4.45-1.694 1.789-3.861 2.613-6.498 2.685h-.211zm7.063-8.829c0-2.967-1.036-5.532-2.966-7.37-1.436-1.364-2.849-1.906-4.991-1.906-1.837 0-3.013.377-4.262 1.342-1.86 1.436-2.731 3.32-2.731 5.957 0 5.391 3.626 9.982 7.91 9.982 4.379 0 7.04-3.038 7.04-8.005zm4.235-10.17s2.024.069 2.189.069h2.166l.377-.023c.188 0 .306.071.306.189 0 .141-.095.187-.306.211a1.957 1.957 0 0 0-1.389.753c-.141.211-.259.424-.307.636a2.876 2.876 0 0 0-.164.871c-.024.494-.024 1.789-.024 3.884l.024 5.086c0 .659.023 1.224.071 1.695.117 1.365.847 2.732 1.883 3.555.989.777 2.26 1.106 4.237 1.106 2.049 0 3.414-.471 4.402-1.482.872-.896 1.154-1.932 1.154-4.191l-.024-9.935c0-1.248-.28-1.648-1.247-1.859l-.447-.095c-.258-.047-.281-.07-.281-.211 0-.118.046-.165.234-.165l.66.024c.987.047 1.552.069 1.647.069.235 0 .73 0 1.507-.047l.472-.022c.233 0 .353.069.353.211 0 .165-.119.258-.564.307-.684.094-.967.305-1.131.965a4.705 4.705 0 0 0-.141.871c-.048.777-.142 2.989-.166 4.967l-.069 5.085c-.048 2.826-.424 3.956-1.791 5.087a4.455 4.455 0 0 1-2.142 1.035c-.918.189-2.025.306-3.131.306-2.52 0-4.333-.613-5.558-1.884a5.742 5.742 0 0 1-1.271-2.167c-.188-.611-.306-1.222-.306-1.812 0 0-.023-3.813-.023-4.098l.047-6.121c0-1.553-.33-2.235-1.012-2.331l-.636-.094c-.259-.047-.353-.095-.353-.236 0-.142.141-.235.306-.235l.448.026zm19.515.376c.07-.307.095-.33.282-.33 0 0 6.805.118 7.111.118h6.074l1.247-.071c.329 0 .399.093.399.564 0 .189-.022.354-.046.496l-.425 1.79a.273.273 0 0 1-.259.235c-.117 0-.188-.071-.188-.213 0-.165.046-.33.046-.541 0-.518-.046-.636-.329-.777-.423-.235-1.248-.329-2.777-.329-.801 0-1.601.023-2.12.071l-.517.047c-.188.022-.283.093-.307.235 0 0-.024.471-.024.636V31.31c0 .895.425 1.318 1.554 1.531l.495.093c.141.047.4.047.4.282 0 .165-.095.26-.305.26h-.471l-5.322-.024c-.118 0-.376.024-.494.024-.117 0-.188-.118-.188-.26 0-.046.022-.14.118-.188.095-.047.424-.094.424-.094l.823-.165c.424-.095.8-.399.919-.753.141-.4.188-1.389.188-3.345l.049-11.819c0-.776-.096-.823-1.367-.823-.471 0-1.012 0-1.625.022-1.271.047-1.859.143-2.329.331-.471.188-.92.705-1.271 1.483-.072.164-.12.188-.214.188-.142 0-.213-.047-.213-.142 0-.071.024-.118.049-.188l.211-.706.211-1.06.191-.822zm25.684 3.32c-.164 0-.235-.071-.307-.354a4.926 4.926 0 0 0-.142-.635c-.236-.8-.376-1.036-.823-1.318-.52-.307-1.226-.471-2.166-.471-1.954 0-3.273 1.271-3.273 3.178 0 1.412.966 2.684 3.227 4.238l1.623 1.106c1.955 1.318 2.661 2.565 2.661 4.472 0 3.298-2.166 5.109-6.075 5.109-.775 0-1.223-.047-2.165-.236l-.683-.14c-.166-.047-.188-.095-.235-.447l-.166-1.32a12.402 12.402 0 0 0-.141-.824c-.046-.234-.118-.658-.118-.918 0-.187.072-.258.214-.258.164 0 .235.071.28.307.166.659.378 1.129.731 1.576.611.825 1.718 1.249 3.273 1.249 2.07 0 3.577-1.484 3.577-3.509 0-.635-.164-1.318-.399-1.718-.307-.494-1.155-1.342-1.931-1.885l-1.555-1.083c-1.436-.988-2.166-1.647-2.66-2.307-.565-.707-.847-1.625-.847-2.707 0-2.944 1.93-4.851 4.966-4.851.591 0 1.271.048 2.237.188.235.024.4.047.495.047.447.048.541.213.541.871v.354c0 .4.118 1.742.118 2.002.002.189-.092.284-.257.284zm20.693 15.303c-2.378 0-4.498-.754-5.722-1.554-2.52-1.673-4.004-4.851-4.004-8.594 0-5.156 3.84-8.947 9.065-8.947 2.166 0 4.144.495 5.603 1.413 2.543 1.578 4.12 4.732 4.12 8.169 0 .753-.093 1.53-.235 2.378-.352 1.907-.964 3.203-2.118 4.45-1.695 1.789-3.86 2.613-6.498 2.685h-.211zm7.062-8.829c0-2.967-1.036-5.532-2.968-7.37-1.435-1.364-2.847-1.906-4.989-1.906-1.837 0-3.014.377-4.262 1.342-1.86 1.436-2.731 3.32-2.731 5.957 0 5.391 3.625 9.982 7.909 9.982 4.381 0 7.041-3.038 7.041-8.005zm14.712-10.076c.21 0 .282.165.306.564l.07 1.978c.024.307.048.542.048.754 0 .26-.094.447-.236.447-.163 0-.258-.165-.282-.471-.095-1.036-.565-1.812-1.271-2.072a3.941 3.941 0 0 0-.988-.189c-.729-.022-2.143-.046-3.106-.046l-1.155.024c-.517.022-.565.071-.565.4l-.093 6.756c0 .189.069.307.186.307l4.099-.047c.4 0 .706-.071.847-.189.071-.071.142-.235.236-.518.07-.189.117-.376.141-.542.025-.258.094-.375.234-.375.166 0 .261.165.261.471-.095 1.318-.095 1.46-.095 1.578 0 .612.07 1.507.141 1.976.049.307.096.589.096.66 0 .189-.096.306-.261.306-.142 0-.234-.188-.351-.753-.307-1.318-.567-1.554-1.908-1.578 0 0-1.341-.024-1.648-.024l-1.53-.047c-.141 0-.236 0-.329.047-.117.048-.142.213-.142.753v4.945c0 1.436.071 2.002.306 2.402.189.329.684.54 1.461.588.375.022.542.118.542.282 0 .14-.071.211-.332.211h-5.53c-.072 0-.144-.071-.144-.165 0-.142.071-.211.308-.235.588-.071.987-.211 1.224-.495.142-.165.33-.47.354-.776.021-.211.045-.589.045-1.131l.023-1.671v-2.024l.096-8.052c0-.824-.023-1.648-.071-2.166-.071-.918-.471-1.39-1.248-1.412-.471 0-.659-.095-.659-.26 0-.141.188-.236.472-.236l10.005.024h.443zm18.524.588l.188-.542c.071-.188.166-.258.354-.258.165 0 .258.093.329.282l.307.847a357.782 357.782 0 0 0 3.603 9.418c1.202 3.083 1.931 4.874 2.117 5.367l.332.896s.375.87.635 1.083c.164.14.376.258.775.329.426.071.543.118.543.329 0 .143-.094.236-.236.236h-4.85c-.258 0-.352-.07-.352-.212 0-.164.14-.258.495-.282.611-.071 1.011-.542 1.011-1.2 0-.189-.071-.449-.236-1.014l-1.882-5.063c-.071-.211-.143-.258-.284-.258h-.258c-.989 0-1.979-.047-2.967-.047l-2.378.023a.492.492 0 0 0-.236.049c-.046.022-.094.093-.14.211l-1.978 4.992c-.165.423-.285.918-.285 1.2 0 .26.144.589.308.777.164.165.212.188.777.305.4.095.518.166.518.331 0 .094-.117.211-.235.211l-.518-.024s-1.13-.047-1.529-.047c-.19 0-2.169.095-2.169.095-.209 0-.328-.071-.328-.235 0-.213.119-.307.495-.448.682-.258 1.011-.659 1.435-1.671l5.439-12.831 1.2-2.849zm.26 2.707c-.024-.072-.071-.094-.118-.094-.046 0-.118.046-.165.118l-2.283 5.579a1.612 1.612 0 0 0-.116.495c0 .14.093.212.329.236l4.214-.024c.306 0 .422-.094.422-.307 0-.046 0-.093-.022-.14l-2.119-5.534-.142-.329zm26.672 2.189c-.022-.14-.07-.235-.14-.235-.048 0-.119.048-.141.117l-.378.778c-.801 1.646-1.601 3.556-2.496 5.745-1.295 3.202-2.166 5.296-2.638 6.238l-.258.518c-.046.095-.142.188-.214.188-.139 0-.21-.093-.258-.211l-.354-.753c-.658-1.389-1.575-3.484-2.73-6.333-1.058-2.614-1.883-4.544-2.542-5.816l-.33-.635c-.071-.094-.142-.165-.164-.165a.16.16 0 0 0-.142.094l-.071.448-.822 10.124-.024.989c0 .471.024.66.164.894.211.331.447.424 1.647.613.235.024.33.094.33.258 0 .167-.141.26-.399.26l-.942-.024c-.541-.023-1.295-.023-1.767-.023-.493 0-.894 0-1.201.023l-.399.024c-.21 0-.258-.047-.258-.188 0-.141.116-.211.423-.283.707-.164 1.035-.494 1.155-1.2l.141-.918c.046-.259.471-4.52.471-4.52l.66-7.416c.164-1.743.21-2.567.21-3.18v-.211c0-.707.096-.989.354-.989.188 0 .307.165.472.589l1.364 3.414c.425 1.036 5.157 11.63 5.157 11.63.024.095.093.166.142.166.071 0 .116-.071.164-.166l.658-1.554c.52-1.224 1.391-3.2 2.591-5.909 1.413-3.154 2.449-5.627 3.131-7.392l.165-.425c.096-.235.188-.329.329-.329.166 0 .282.165.307.447l.188 3.203s.142 2.26.165 2.519l.542 9.417c.094 1.836.493 2.519 1.552 2.685.401.047.591.164.591.351 0 .189-.142.26-.495.26h-.096s-2.047-.024-2.211-.024c-.189 0-1.648.048-1.648.048-.142 0-.802.023-.825.023-.165 0-.258-.094-.258-.235s.093-.211.329-.305c.87-.307 1.365-.92 1.365-1.673 0-.235-.023-.636-.046-1.201l-.096-1.835-.424-7.915zm10.099-4.425c-.354.023-.448.069-.448.283l-.022.682v6.098c0 .236.022.258.212.258h3.554c1.319 0 1.626-.165 1.767-.989.071-.376.142-.494.306-.494.118 0 .189.094.189.258l-.071.802v1.294l.143 1.671v.353c0 .118-.049.189-.165.189-.167 0-.235-.118-.306-.66-.144-.894-.565-1.271-1.484-1.293 0 0-.895-.024-2.285-.047-.399 0-1.601.069-1.601.069h-.165c-.046.024-.07.096-.07.167l.094 5.674c.023 1.882.213 2.211 1.271 2.26 1.154.069 1.248.069 1.366.069 1.317 0 2.874-.14 3.273-.305s.941-.589 1.2-.942c.164-.236.306-.519.446-.989.047-.189.096-.236.212-.236.142 0 .213.047.213.211 0 .213-.143.849-.282 1.39l-.283 1.013c-.142.66-.234.753-.684.753h-.423c-.399 0-1.695-.047-3.837-.047-2.896 0-4.992.047-5.604.071l-.448.023c-.116 0-.188-.071-.188-.165 0-.143.071-.211.542-.307.281-.069.729-.258.94-.423.26-.188.354-.471.376-1.178l.024-1.106v-7.84s-.046-4.756-.069-5.038c-.049-.847-.096-1.412-.331-1.743-.14-.187-.376-.305-.73-.329l-.564-.046c-.141-.024-.235-.095-.235-.236 0-.142.142-.235.377-.235 0 0 4.873.093 4.992.093 5.462-.118 5.509-.118 5.556-.118.188 0 .306.188.306.4v.188c-.024.165-.024.33-.024.519 0 .495.048 1.035.096 1.459.023.142.045.26.045.354 0 .26-.093.376-.234.376-.116 0-.188-.069-.258-.258l-.144-.447c-.375-1.224-.964-1.556-2.682-1.556h-2.944l-.919.05zm11.675 17.446s-2.237.094-2.543.094c-.117 0-.188-.071-.188-.188 0-.118.071-.211.259-.259l.59-.164c.516-.142.847-.542.964-1.131.119-.611.165-1.742.188-3.696l.096-11.655c-.047-.496-.329-.918-.66-.964l-.683-.118c-.164-.024-.354-.071-.375-.096-.071-.022-.119-.117-.119-.211 0-.188.165-.259.401-.259.117 0 .564.024.564.024s2.731.094 2.873.094c2.143-.023 3.106-.023 3.13-.023 2.496 0 4.31 1.883 4.31 4.426 0 1.673-.59 3.038-1.673 3.884l-1.224.967s1.601 3.249 2.52 4.803c.611 1.035 1.672 2.566 1.672 2.566l.447.565c.306.376.918.658 1.671.824l.518.118c.214.046.26.094.26.211 0 .165-.046.188-.331.211l-.28.024s-2.521.071-2.826.071c-.636 0-1.106-.518-1.437-1.131l-.518-.894c-.4-.684-.967-1.767-1.673-3.25a108.954 108.954 0 0 1-1.364-2.92l-.143-.306c-.116-.258-.399-.447-.87-.447-.705 0-1.767.046-2.188.093-.283.024-.331.142-.331.495l-.024 4.638c0 1.059.024 1.625.096 2.025.095.494.589.964 1.06 1.06l.729.14c.306.071.378.095.378.26 0 .14-.072.211-.235.211l-.496-.024s-1.717-.07-2.353-.07h-.192zm1.083-9.96c0 .353.213.449 1.012.449 3.157 0 4.897-1.414 4.897-3.956 0-2.496-1.789-4.121-4.568-4.121-1.128 0-1.293.189-1.293 1.413l-.048 6.215zm16.877 7.111c.024 1.365.095 1.743.472 2.047.213.166.612.307 1.131.402.282.046.424.14.424.282 0 .14-.095.235-.235.235l-.4-.024c-.589-.024-1.507-.071-2.685-.071-.849 0-1.483.047-1.907.071l-.328.024c-.143 0-.236-.095-.236-.235 0-.165.094-.26.564-.377.473-.141.848-.424 1.036-.825.259-.541.259-.823.282-4.708l.024-9.489a9.16 9.16 0 0 0-.071-1.2c-.07-.66-.377-1.107-.799-1.225-.189-.046-.756-.14-.756-.14-.165-.024-.21-.096-.21-.189 0-.189.094-.26.376-.26.47 0 1.153.048 1.696.048h.894c1.084 0 1.742 0 2.471-.048.189 0 .235.048.235.188 0 .165-.141.283-.516.354-.495.118-.871.329-1.084.611-.143.167-.213.377-.259.589-.119.612-.188 2.378-.188 4.333v6.285l.069 3.322zm18.999 2.118c-1.835.777-3.767 1.2-5.32 1.2-5.838 0-9.606-3.696-9.606-9.417 0-2.802.802-4.991 2.568-6.874 1.247-1.366 2.212-1.955 3.625-2.449.988-.354 2.024-.424 3.083-.424 1.555 0 2.849.165 4.969 1.013.423.165.753.283.988.354.329.07.4.165.4.658 0 .849.047 1.672.118 2.614v.095c0 .259-.094.352-.235.352-.143 0-.283-.118-.519-.658-.306-.707-1.389-1.884-2.118-2.355-1.249-.823-2.332-1.154-3.815-1.154-1.767 0-3.132.424-4.354 1.342-2.001 1.46-2.873 3.438-2.873 6.523 0 5.038 3.674 9.37 7.981 9.37 1.507 0 3.226-.542 4.284-1.319.707-.518 1.625-1.767 1.885-2.52.164-.494.235-.611.472-.611.164 0 .258.211.258.494 0 .142-.071.518-.165.895-.142.472-.258 1.012-.258 1.012l-.143.684c-.117.54-.377.822-1.225 1.175zm11.654-17.186l.187-.542c.071-.188.165-.258.354-.258.166 0 .261.093.33.282l.306.847a357.782 357.782 0 0 0 3.603 9.418c1.2 3.083 1.93 4.874 2.12 5.367l.329.896s.378.87.636 1.083c.164.14.378.258.777.329.422.071.54.118.54.329 0 .143-.095.236-.235.236h-4.85c-.26 0-.354-.07-.354-.212 0-.164.142-.258.494-.282.613-.071 1.013-.542 1.013-1.2 0-.189-.07-.449-.235-1.014l-1.884-5.063c-.071-.211-.141-.258-.281-.258h-.26c-.988 0-1.978-.047-2.967-.047l-2.378.023a.487.487 0 0 0-.235.049c-.047.022-.094.093-.143.211l-1.978 4.992c-.164.423-.28.918-.28 1.2 0 .26.141.589.305.777.166.165.211.188.777.305.401.095.519.166.519.331 0 .094-.117.211-.236.211l-.517-.024s-1.131-.047-1.532-.047c-.187 0-2.165.095-2.165.095-.213 0-.329-.071-.329-.235 0-.213.116-.307.494-.448.683-.258 1.014-.659 1.436-1.671l5.438-12.831 1.201-2.849zm.258 2.707c-.023-.072-.071-.094-.117-.094-.048 0-.118.046-.165.118l-2.282 5.579c-.071.189-.12.377-.12.495 0 .14.094.212.329.236l4.215-.024c.306 0 .426-.094.426-.307 0-.046 0-.093-.024-.14l-2.119-5.534-.143-.329zM48.209 58.987c1.156 0 2.08.938 2.08 2.116 0 1.196-.923 2.125-2.088 2.125a2.098 2.098 0 0 1-2.098-2.125 2.1 2.1 0 0 1 2.098-2.116h.008zm-.008.327c-.932 0-1.692.801-1.692 1.789 0 1.006.76 1.796 1.7 1.796.943.012 1.693-.79 1.693-1.788 0-.996-.75-1.797-1.693-1.797h-.008zm-.395 3.021h-.378v-2.361c.2-.027.385-.055.669-.055.357 0 .595.071.734.176.14.105.214.264.214.49 0 .311-.205.498-.459.573v.018c.207.04.347.228.394.576.057.364.113.507.151.583h-.394c-.059-.076-.113-.291-.159-.602-.057-.301-.207-.412-.509-.412h-.263v1.014zm0-1.307h.271c.311 0 .577-.112.577-.405 0-.205-.152-.41-.577-.41-.12 0-.204.008-.271.017v.798z" class="st0"/><path d="M54.537 44.848c1.925-1.956 3.887-5.038 3.887-9.287v-.043c0-2.084-.545-3.893-1.426-5.4-.018-.029-.142-.287-.35-.579l-.043-.056.039-.065c.069-.119.125-.222.156-.303-.095 0-.229 0-.399-.005h-.055l-.035-.042c-.27-.368-.583-.7-.71-.823-.335-.324-.845-.834-1.299-1.184-2.347-1.839-5.238-2.713-7.677-2.72a16.677 16.677 0 0 0-7.089 1.594l-.132.063-.025-.144c-.646-3.561-2.207-6.769-4.012-10.042-1.989-3.601-4.281-7.302-6.133-11.669-1.846 4.367-4.147 8.068-6.133 11.669-1.803 3.273-3.364 6.482-4.011 10.042l-.025.144-.134-.063a16.65 16.65 0 0 0-7.087-1.594c-2.44.007-5.326.881-7.677 2.72-.454.354-.887.742-1.288 1.178l-.719.875h-.058l-.418.001a3.5 3.5 0 0 0 .157.305l.04.063-.406.627C.796 31.209.038 33.434.041 35.526v.034c0 4.249 1.966 7.331 3.895 9.287 1.934 1.972 3.856 2.948 3.913 2.976l1.475.711a5.784 5.784 0 0 1-.228-1.609c0-.656.11-1.432.468-2.235a7.49 7.49 0 0 1 2.852-3.349 4.865 4.865 0 0 1 1.09-.51c.008 0 .598-.215 1.547-.381l.016-.006.021.006c1.291.205 2.846.436 2.849.436l-.013.225h-2.365c.114.087.27.201.445.317.398.284.917.597 1.355.729.905.266 3.312.689 3.312.689l-.021.221H19.1l3.279 1.959v.457l-4.066 3.971c.065.104.194.31.397.574.287.382.709.879 1.248 1.332.191.165.374.306.541.436l.104.08-.527.5c-.141.113-.5.383-.995.637-.624.328-1.456.629-2.308.629h-.013a3.48 3.48 0 0 1-1.797-.492c-.599-.348-2.512-2.037-2.572-4.556-1.078 2.054-1.173 3.751-1.174 4.699 0 .204.008.37.008.505a10.15 10.15 0 0 0 2.666 6.869c1.618 1.763 3.822 2.889 6.172 2.889h.005a7.183 7.183 0 0 0 3.192-.75l.1-.047.049.104c.81 1.715 2.729 5.26 5.825 7.889 3.106-2.637 5.021-6.174 5.829-7.889l.044-.104.104.047a7.183 7.183 0 0 0 3.192.75h.013c2.342-.003 4.549-1.129 6.167-2.889a10.19 10.19 0 0 0 2.667-6.869c0-.134.005-.301.005-.505 0-.948-.096-2.646-1.174-4.699-.057 2.519-1.98 4.208-2.568 4.556a3.502 3.502 0 0 1-1.799.492h-.013c-.854 0-1.687-.301-2.315-.629a6.402 6.402 0 0 1-.99-.637l-.012-.007-.429-.542.089-.066c.157-.118.323-.255.5-.4.537-.453.957-.95 1.244-1.332.2-.265.333-.471.396-.574l-4.066-3.971v-.457l3.285-1.959h-1.558l-.017-.221s2.407-.424 3.311-.689c.436-.133.952-.445 1.354-.729.174-.116.327-.23.449-.317h-2.366l-.02-.225c.003 0 1.503-.224 2.785-.426l.017-.005.022.005c.611.117 1.338.331 1.578.371.005 0 .502.143 1.102.51 1.586 1.034 2.368 2.291 2.847 3.349.345.762.454 1.528.454 2.185 0 .736-.132 1.338-.221 1.66l1.482-.711c.053-.029 1.978-1.005 3.915-2.977"/><path d="M6.224 35.751l.765 2.369h2.488l-2.01 1.462.77 2.365-2.013-1.459-2.014 1.459.769-2.365-2.014-1.462h2.486zm45.916 0l.768 2.369h2.487l-2.013 1.462.769 2.365-2.011-1.459-2.012 1.459.768-2.365-2.013-1.462h2.489z" class="st0"/><path d="M11.624 39.772c-2.01 1.256-3.109 2.882-3.677 4.254-.213.51-.354.985-.453 1.397l-.021.105-.088-.061a13.887 13.887 0 0 1-2.363-2.002c-1.655-1.752-3.229-4.324-3.236-7.912.008-1.431.292-2.68.788-3.765l-1.191-1.591C.528 31.694 0 33.477 0 35.532v.035c0 4.266 1.971 7.353 3.907 9.319 1.936 1.975 3.864 2.95 3.922 2.978l1.553.747a5.563 5.563 0 0 1 .21-3.897 7.5 7.5 0 0 1 2.837-3.333c.394-.24.75-.389.94-.455-.44-.285-1.474-.983-1.745-1.154m42.936 5.114c1.925-1.966 3.899-5.053 3.899-9.317v-.039c0-2.055-.522-3.834-1.378-5.33l-1.187 1.589c.487 1.085.777 2.335.78 3.767-.003 3.586-1.575 6.158-3.234 7.91a14.364 14.364 0 0 1-2.356 2.002l-.09.061-.028-.105a9.086 9.086 0 0 0-.444-1.396c-.572-1.373-1.672-3-3.685-4.255-.267.171-1.304.871-1.742 1.154.193.069.546.215.94.457 1.581 1.029 2.354 2.282 2.833 3.33a5.18 5.18 0 0 1 .451 2.175c0 .795-.155 1.436-.238 1.726l1.552-.748c.058-.033 1.991-1.005 3.927-2.981M39.723 27.814a13.08 13.08 0 0 1 1.505-.698 15.052 15.052 0 0 1 5.392-1.018h.025c1.862 0 4.191.665 6.102 1.999h2.752a11.111 11.111 0 0 0-1.176-1.06c-2.361-1.841-5.252-2.718-7.7-2.723a16.625 16.625 0 0 0-7.105 1.599l-.086.042-.018-.099c-.649-3.568-2.208-6.779-4.015-10.055-2.002-3.622-4.313-7.344-6.169-11.748-1.851 4.404-4.167 8.126-6.164 11.748-1.806 3.276-3.368 6.487-4.018 10.055l-.016.099-.085-.042a16.62 16.62 0 0 0-7.101-1.599c-2.456.005-5.347.882-7.705 2.723-.411.323-.804.678-1.175 1.06h2.749c1.913-1.334 4.242-1.999 6.101-1.999h.03c2.225 0 4.084.517 5.388 1.018.655.254 1.164.51 1.504.698.17.09.301.17.38.217.045.028.074.048.089.058l.02.011.008.002v.003l1.228.837.157-1.482c.409-3.75 1.992-7.145 4.008-10.796 1.414-2.56 3.026-5.234 4.54-8.226l.063-.131.067.131c1.51 2.992 3.129 5.666 4.538 8.226 2.013 3.651 3.601 7.046 4.004 10.796l.162 1.482 1.22-.833.008-.005.012-.005s.001-.005.01-.011a.758.758 0 0 0 .091-.058c.084-.045.213-.125.38-.216M11.175 53.305c0 .198.005.371.005.502 0 2.694 1.054 5.124 2.678 6.896 1.625 1.766 3.843 2.896 6.201 2.9h.005c1.073 0 2.164-.24 3.21-.752l.069-.032.027.069c.812 1.723 2.74 5.281 5.859 7.922 3.13-2.646 5.046-6.199 5.864-7.922l.028-.069.07.032a7.264 7.264 0 0 0 3.206.752h.008c2.363-.004 4.575-1.135 6.198-2.9a10.236 10.236 0 0 0 2.682-6.896l.001-.502c0-.974-.096-2.729-1.245-4.843v.04c-.008 2.559-1.961 4.275-2.554 4.627a3.469 3.469 0 0 1-1.779.485h-.01c-.849 0-1.676-.302-2.295-.621a7.42 7.42 0 0 1-.949-.602l-1.514 1.08c.238.191.905.709 1.558 1.061.796.423 1.908.869 3.21.869h.008c.851 0 1.779-.209 2.673-.729.333-.199.662-.436.979-.72l.129-.112-.005.174a8.433 8.433 0 0 1-2.204 5.479c-1.338 1.457-3.107 2.323-4.874 2.323v.001h-.009c-1.065-.004-2.143-.308-3.201-1.021l-.938-.731-.406 1.199v.003c-.02.036-.038.093-.069.163-.062.141-.153.354-.282.619a24.337 24.337 0 0 1-1.122 2.123c-.755 1.278-1.79 2.78-3.087 4.127-.005.008-.011.014-.014.015l-.056.055-.05-.055c-.003-.001-.008-.007-.016-.015-1.297-1.347-2.334-2.849-3.084-4.127a26.18 26.18 0 0 1-1.128-2.123c-.124-.266-.215-.479-.276-.619-.03-.07-.056-.127-.069-.163v-.003h-.001l-.405-1.199-.949.735c-1.054.71-2.129 1.014-3.193 1.018h-.013c-1.77-.001-3.537-.867-4.872-2.324a8.48 8.48 0 0 1-2.207-5.479l-.003-.174.127.112c.322.284.648.521.981.72.894.52 1.822.729 2.673.729h.011c1.3 0 2.414-.446 3.212-.869.646-.352 1.313-.869 1.558-1.061l-1.52-1.08a6.736 6.736 0 0 1-.946.596c-.622.325-1.452.627-2.293.627h-.011c-.58 0-1.168-.133-1.783-.485-.59-.352-2.547-2.068-2.549-4.627v-.04c-1.149 2.113-1.248 3.869-1.249 4.842" class="st0"/><path d="M27.999 27.283h2.498L29.229 9.597zm-4.648 15.741c.139 1.17.398 2.449.847 3.687v-3.687h-.847zm1.778 0v5.685c.266.444.561.871.896 1.271v-6.956h-.896zm1.833 0v7.921c.279.248.576.479.894.695v-8.616h-.894zm1.832 0v9.167c.135.072.284.139.431.204.157-.069.307-.146.46-.224v-9.147h-.891zm1.829 0v8.594a8.86 8.86 0 0 0 .891-.695v-7.898h-.891zm1.83 0v6.923a9.93 9.93 0 0 0 .89-1.279v-5.644h-.89zm2.65 0h-.828v3.622c.444-1.222.694-2.475.828-3.622M24.375 55.096c.248.071.819.147.819.147l1.444-3.436c-1.081-.883-1.892-1.953-2.507-3.084-.31.703-2.142 4.863-2.161 4.979-.026.124.044.319.221.419.177.102.547.325.547.325s-.473.896-.92 1.093c-.444.201-1.267.519-2.01.472-.743-.052-1.218-.064-1.339.546-.199 1.02.794 1.535.794 1.535s-.397-1.113.323-1.113h4.542c.274 0 .571.346.297.97.597-.253.823-.745.698-1.366-.126-.623-.819-.524-1.14-.545-.328-.026-.894-.202-.894-.202l.616-.992c-.001 0 .421.175.67.252" class="st0"/><path d="M32.529 33.771s.227 1.169.697 1.169c.473 0 2.67-1.999 3.476-2.805.805-.805 3.351-3.13 6.379-3.13 3.027 0 13.852.029 13.852.029s-.374 1.139-1.291 1.313c-.92.174-6.482.75-6.482.75h6.382s-.646 1.16-1.592 1.336c-.942.169-5.084.597-5.084.597h4.91s-.47 1.213-1.662 1.435c-1.19.229-5.087.549-5.087.549h4.691s-.673 1.143-1.711 1.365c-1.042.224-5.163.644-5.163.644h4.391s-.616 1.07-1.763 1.266c-1.142.199-4.618.67-4.618.67h3.747s-.915 1.219-2.207 1.443c-1.29.219-3.821.592-3.821.592h2.683s-1.169.994-2.085 1.269c-.919.272-3.328.696-3.328.696h1.963l-3.577 2.132v.349l4.095 3.996s-.616 1.094-1.713 2.008c-1.087.92-1.786 1.268-1.786 1.268l-2.103-4.803c.101-.236.202-.463.289-.702.939-2.448 1.135-4.995 1.135-6.757 0-1.344-.117-2.229-.119-2.242l-.038-.31-6.658-1.531-.096-.025-.104.025-6.653 1.531-.042.31c-.003.014-.123.908-.123 2.276 0 1.763.197 4.306 1.133 6.745.093.243.199.49.308.732l-2.084 4.75s-.694-.348-1.789-1.268c-1.09-.914-1.71-2.008-1.71-2.008l4.095-3.996v-.349l-3.572-2.132h1.958s-2.407-.424-3.324-.696c-.923-.274-2.084-1.269-2.084-1.269h2.679s-2.532-.373-3.822-.592c-1.291-.225-2.211-1.443-2.211-1.443h3.75s-3.476-.471-4.619-.67c-1.142-.196-1.761-1.266-1.761-1.266h4.393s-4.123-.419-5.161-.644c-1.046-.223-1.713-1.365-1.713-1.365h4.688s-3.892-.321-5.083-.549c-1.194-.222-1.668-1.435-1.668-1.435H9.63s-4.144-.428-5.087-.597c-.941-.176-1.59-1.336-1.59-1.336h6.38s-5.557-.576-6.478-.75c-.919-.174-1.287-1.313-1.287-1.313s10.819-.029 13.847-.029c3.026 0 5.572 2.325 6.38 3.13.806.806 3.005 2.805 3.476 2.805.468 0 1.119-.858 1.119-.858.374-.731.789-1.941.789-1.941s-.563-.205-.919-.432a1.653 1.653 0 0 1-.542-.597h1.388c.348 0 1.417.265 1.323.802-.096.545-.899 3.087-.899 3.087s.842.171 1.684.171c.839 0 2.335-.171 2.335-.171l-.767-4.932c-.077-.506-.839-.673-1.494-.673-.658 0-1.178.148-1.309.182-.13.041-.17.173.093.32.261.153.558.061.558.061s-.015.316-.258.502c-.245.184-.825.224-1.214.224-.396 0-1.104-.04-1.348.019-.239.055-.373.184-.426.297-.061.111.165.578.165.578s-.393.169-.654-.481c-.26-.66-.079-1.247.207-1.439.653-.453 2.057-.17 2.057-.17s.318-.82 1.193-1.177c.878-.354 1.758-.15 2.562-.054.805.09 1.571.054 1.571.054l-.675 1.14c-.001-.001.549 3.429.719 4.32" class="st0"/><path d="M31.24 52.24a9.552 9.552 0 0 1-1.842 1.014l-.173.078-.175-.078a9.385 9.385 0 0 1-1.805-.988l-.959 2.48s.944.361 2.917.369c0 .002 0 .002.005.002h.083v-.002c1.975-.008 2.915-.369 2.915-.369l-.966-2.506zm7.445 3.771c-.745.048-1.561-.27-2.01-.471-.446-.196-.916-1.093-.916-1.093s.37-.224.545-.325c.17-.1.244-.295.224-.419-.027-.118-1.944-4.483-2.187-5.032-.612 1.141-1.422 2.219-2.495 3.107l1.453 3.464s.572-.074.818-.146c.248-.075.671-.252.671-.252l.623.992s-.572.175-.894.202c-.325.021-1.02-.078-1.145.545-.123.623.099 1.115.696 1.366-.274-.624.026-.97.297-.97h4.542c.724 0 .325 1.113.325 1.113s.992-.516.794-1.537c-.114-.607-.594-.595-1.341-.544m-3.513-17.385l-5.943-1.368-5.943 1.368c-.004.082-.013.172-.021.279-.029.377-.057.92-.057 1.576a19.16 19.16 0 0 0 .059 1.613h11.925a20.377 20.377 0 0 0-.02-3.468m-10.224 3.12l-.465-.34-.466.34.182-.548-.466-.341h.572l.178-.545.179.545h.576l-.464.341.174.548zm-.175-2.155l.175.553-.465-.338-.466.338.182-.553-.466-.335h.572l.178-.544.179.544h.576l-.465.335zm.542-.724h.575l.175-.549.178.549h.573l-.463.34.177.544-.465-.337-.463.337.175-.544-.462-.34zm1.514 2.879l-.46-.34-.471.34.182-.548-.469-.341h.578l.181-.545.177.545h.571l-.462.341.173.548zm.066-3.272h.58l.174-.545.18.545h.571l-.466.34.182.543-.467-.337-.465.337.177-.543-.466-.34zm1.817 3.272l-.466-.34-.466.34.179-.548-.468-.341h.573l.182-.545.175.545h.577l-.465.341.179.548zm.053-2.778l.18-.547-.466-.338h.575l.175-.544.181.544h.575l-.466.338.175.547-.465-.342-.464.342zm1.899 2.778l-.467-.34-.463.34.179-.548-.466-.341h.575l.175-.545.182.545h.575l-.466.341.176.548zm.133-2.726l-.466.337.18-.543-.468-.34h.575l.179-.545.175.545h.577l-.463.34.175.543-.464-.337zm1.745 2.726l-.462-.34-.466.34.175-.548-.462-.341h.573l.18-.545.178.545h.573l-.464.341.175.548zm.298-1.996l-.466-.337-.459.337.173-.544-.462-.34h.573l.175-.549.178.549h.575l-.462.34.175.544zm1.586 1.996l-.469-.34-.462.34.178-.548-.466-.341h.578l.172-.545.182.545h.573l-.468.341.182.548zm-.182-2.155l.183.553-.469-.338-.462.338.178-.553-.466-.335h.578l.172-.544.182.544h.573l-.469.335zm370.36-23.185h.27c.315 0 .579-.113.579-.41 0-.209-.147-.416-.579-.416-.12 0-.207.01-.27.02v.806zm0 1.318h-.385v-2.378c.202-.031.393-.059.68-.059.359 0 .592.074.734.18.143.104.221.265.221.494 0 .313-.211.502-.469.579v.017c.21.039.354.227.403.579.052.371.111.514.15.589h-.398c-.059-.076-.113-.295-.161-.608-.057-.304-.21-.416-.511-.416h-.265v1.023zm.397-3.046c-.941 0-1.705.808-1.705 1.802 0 1.015.764 1.81 1.711 1.81.95.011 1.708-.795 1.708-1.799 0-1.005-.758-1.813-1.708-1.813h-.006zm.006-.329c1.168 0 2.096.949 2.096 2.131 0 1.207-.928 2.144-2.102 2.144-1.169 0-2.115-.937-2.115-2.144 0-1.183.946-2.131 2.115-2.131h.006z" class="st0"/></svg>